<svg xmlns="http://www.w3.org/2000/svg" xmlns:xlink="http://www.w3.org/1999/xlink" width="500" zoomAndPan="magnify" viewBox="0 0 375 374.999991" height="500" preserveAspectRatio="xMidYMid meet" version="1.0"><defs><clipPath id="eedc4ff137"><path d="M 112.5 112.5 L 262.5 112.5 L 262.5 262.5 L 112.5 262.5 Z M 112.5 112.5 " clip-rule="nonzero"/></clipPath></defs><g clip-path="url(#eedc4ff137)"><path fill="#ef7122" d="M 251.882812 251.109375 C 251.019531 252.171875 249.710938 252.871094 248.234375 252.871094 C 245.636719 252.871094 243.53125 250.765625 243.53125 248.164062 C 243.53125 246.816406 244.101562 245.609375 245.011719 244.75 C 250.03125 239.664062 253.128906 232.699219 253.128906 225 L 253.128906 182.8125 C 253.128906 180.226562 251.023438 178.125 248.441406 178.125 L 229.6875 178.125 C 223.214844 178.125 217.964844 172.878906 217.964844 166.402344 L 217.964844 150 C 217.964844 134.464844 205.375 121.875 189.84375 121.875 L 150 121.875 C 134.464844 121.875 121.875 134.464844 121.875 150 L 121.875 225 C 121.875 240.535156 134.464844 253.125 150 253.125 L 201.5625 253.125 C 204.148438 253.125 206.25 255.226562 206.25 257.8125 C 206.25 260.402344 204.148438 262.5 201.5625 262.5 L 150 262.5 C 129.289062 262.5 112.5 245.714844 112.5 225 L 112.5 150 C 112.5 129.285156 129.289062 112.5 150 112.5 L 189.84375 112.5 C 210.558594 112.5 227.34375 129.285156 227.34375 150 L 227.34375 164.0625 C 227.34375 166.652344 229.441406 168.746094 232.03125 168.746094 L 250.785156 168.746094 C 257.253906 168.746094 262.5 173.996094 262.5 180.46875 L 262.5 225 C 262.5 235.164062 258.445312 244.359375 251.882812 251.109375 Z M 154.6875 168.746094 C 152.097656 168.746094 150 166.652344 150 164.0625 C 150 161.472656 152.097656 159.375 154.6875 159.375 L 182.8125 159.375 C 185.402344 159.375 187.5 161.472656 187.5 164.0625 C 187.5 166.652344 185.402344 168.746094 182.8125 168.746094 Z M 150 210.9375 C 150 208.347656 152.097656 206.253906 154.6875 206.253906 L 210.933594 206.253906 C 213.527344 206.253906 215.621094 208.347656 215.621094 210.9375 C 215.621094 213.527344 213.527344 215.625 210.933594 215.625 L 154.6875 215.625 C 152.097656 215.625 150 213.527344 150 210.9375 Z M 220.3125 253.125 C 222.902344 253.125 225 255.226562 225 257.8125 C 225 260.402344 222.902344 262.5 220.3125 262.5 C 217.726562 262.5 215.621094 260.402344 215.621094 257.8125 C 215.621094 255.226562 217.726562 253.125 220.3125 253.125 Z M 220.3125 253.125 " fill-opacity="1" fill-rule="evenodd"/></g></svg>